<svg width="51" height="25" viewBox="0 0 51 25" fill="none" xmlns="http://www.w3.org/2000/svg">
<path d="M20.0421 7.16335L12.0093 11.8218L3.21676 8.68883L16.4967 0.977723C16.4967 0.977719 16.4967 0.977714 16.4967 0.97771C17.3113 0.504793 18.2789 0.376796 19.187 0.621508C20.0951 0.86624 20.8703 1.46399 21.3412 2.28427C21.8122 3.10466 21.9399 4.07997 21.696 4.9954C21.4521 5.91069 20.8569 6.69022 20.0423 7.16322C20.0423 7.16324 20.0423 7.16325 20.0423 7.16327C20.0422 7.1633 20.0422 7.16332 20.0421 7.16335Z" fill="#C1BBA8" stroke="black"/>
<path d="M2.27496 15.4202L2.27494 15.4202C1.87155 15.186 1.5178 14.8741 1.23398 14.5021C0.95015 14.1301 0.741846 13.7054 0.621082 13.2522C0.500318 12.799 0.469492 12.3263 0.530389 11.861C0.591287 11.3958 0.742696 10.9473 0.975868 10.5411C1.20904 10.1349 1.51936 9.77913 1.88899 9.49388C2.25862 9.20864 2.68036 8.99952 3.13007 8.87833C3.57977 8.75715 4.04875 8.72623 4.51028 8.78733C4.9718 8.84842 5.41696 9.00035 5.82033 9.23454C5.82034 9.23454 5.82035 9.23454 5.82035 9.23455L20.0313 17.4863C20.0316 17.4864 20.0318 17.4866 20.0321 17.4867C20.7055 17.881 21.2317 18.4876 21.5289 19.2133C21.8262 19.9393 21.8776 20.7437 21.6751 21.5021C21.4725 22.2605 21.0274 22.9302 20.4091 23.4081C19.791 23.8859 19.034 24.1454 18.2551 24.1472C17.6347 24.1476 17.0249 23.984 16.4869 23.6725L2.27496 15.4202Z" fill="#C1BBA8" stroke="black"/>
<path d="M47.0004 15.9895L34.0653 23.5004L34.0648 23.5007C33.6021 23.7698 33.0829 23.9231 32.551 23.9488L32.3959 23.9485C31.6599 23.9469 30.9444 23.7016 30.36 23.25C29.7756 22.7983 29.3547 22.165 29.163 21.4477C28.9714 20.7302 29.02 19.9693 29.3013 19.2826C29.5823 18.5964 30.0798 18.023 30.7162 17.6503C30.7165 17.6501 30.7168 17.65 30.7171 17.6498L38.7858 12.9642L47.0004 15.9895Z" fill="#C1BBA8" stroke="black" stroke-width="1.38881"/>
<path d="M44.9252 15.2499L44.9217 15.2479L30.7203 7.00289C29.995 6.53616 29.4749 5.80582 29.2694 4.96233C29.0629 4.11427 29.1908 3.21887 29.6258 2.46399C30.0608 1.70923 30.7686 1.1541 31.6001 0.913563C32.4275 0.67423 33.3147 0.764455 34.0778 1.16556L48.2773 9.41062C48.2775 9.41075 48.2777 9.41088 48.278 9.41101C48.9156 9.78268 49.4144 10.3558 49.6965 11.0423C49.9786 11.7292 50.0278 12.4906 49.8362 13.2086C49.6447 13.9265 49.2233 14.5601 48.6382 15.0118C48.0534 15.4632 47.3375 15.7079 46.6012 15.7087C46.0123 15.7075 45.434 15.5493 44.9252 15.2499Z" fill="#C1BBA8" stroke="black" stroke-width="1.38881"/>
</svg>
